<svg id="Capa_1" data-name="Capa 1" xmlns="http://www.w3.org/2000/svg" viewBox="0 0 30 30"><defs><style>.cls-1{fill:#ff8000;}.cls-2{fill:#ffcd00;stroke:#000;stroke-miterlimit:10;stroke-width:0.75px;}</style></defs><title>casco3</title><rect class="cls-1" width="30" height="30"/><path class="cls-2" d="M14.94,6.52A11.38,11.38,0,0,0,3.6,17.94l0,3.64,22.76-.09,0-3.64A11.37,11.37,0,0,0,14.94,6.52Z"/><path class="cls-2" d="M27.26,23,15,24.58,2.75,23.08A.75.75,0,0,1,2,22.34H2a.74.74,0,0,1,.74-.75l24.51-.1a.74.74,0,0,1,.75.74h0A.74.74,0,0,1,27.26,23Z"/><rect class="cls-2" x="10.82" y="5.44" width="8.28" height="16.1" transform="translate(-0.05 0.06) rotate(-0.23)"/></svg>