<svg id="Capa_1" data-name="Capa 1" xmlns="http://www.w3.org/2000/svg" viewBox="0 0 197.27 61.18"><defs><style>.cls-1{fill:#ff8000;stroke:#ff8000;stroke-width:0.5px;}.cls-1,.cls-3{stroke-miterlimit:10;}.cls-2{isolation:isolate;}.cls-3{fill:none;stroke:#000;stroke-width:0.75px;}.cls-4{fill:#ffcd00;}</style></defs><title>logo-naranja</title><path class="cls-1" d="M14.3,18.5a3.34,3.34,0,0,1,.9-2.3,3.17,3.17,0,0,1,2.3-.9,3.34,3.34,0,0,1,2.3.9,3.17,3.17,0,0,1,.9,2.3V31a13.79,13.79,0,0,1,7.8-2.4h.2a13.44,13.44,0,0,1,10,4.2,13.6,13.6,0,0,1,4.2,10v6.5a13.44,13.44,0,0,1-4.2,10,13.6,13.6,0,0,1-10,4.2h-.2a13.87,13.87,0,0,1-7.9-2.4,2.87,2.87,0,0,1-3.1,2.4,3.08,3.08,0,0,1-3.2-3.2Zm6.4,30.9A7.47,7.47,0,0,0,23,54.9a7.64,7.64,0,0,0,5.5,2.3h.2a7.85,7.85,0,0,0,7.8-7.8V42.9a7.47,7.47,0,0,0-2.3-5.5,7.64,7.64,0,0,0-5.5-2.3h-.2A7.47,7.47,0,0,0,23,37.4a7.64,7.64,0,0,0-2.3,5.5Z" transform="translate(-4.1 -2.9)"/><path class="cls-1" d="M73.2,28.6a3.34,3.34,0,0,1,2.3.9,3.26,3.26,0,0,1,1,2.3V60.4a2.9,2.9,0,0,1-1,2.3,3.17,3.17,0,0,1-2.3.9,2.87,2.87,0,0,1-3.1-2.4,13.87,13.87,0,0,1-7.9,2.4H62a13.44,13.44,0,0,1-10-4.2,13.6,13.6,0,0,1-4.2-10V31.8a3.34,3.34,0,0,1,.9-2.3,3.17,3.17,0,0,1,2.3-.9,3.34,3.34,0,0,1,2.3.9,3.17,3.17,0,0,1,.9,2.3V49.4a7.47,7.47,0,0,0,2.3,5.5A7.64,7.64,0,0,0,62,57.2h.2A7.85,7.85,0,0,0,70,49.4V31.8a3.34,3.34,0,0,1,.9-2.3A3.88,3.88,0,0,1,73.2,28.6Z" transform="translate(-4.1 -2.9)"/><path class="cls-1" d="M88.8,24.6a3.41,3.41,0,0,1-2.5,1.1,3.63,3.63,0,0,1-2.6-1.1,3.41,3.41,0,0,1-1.1-2.5,3.76,3.76,0,0,1,3.7-3.7,3.41,3.41,0,0,1,2.5,1.1,3.63,3.63,0,0,1,1.1,2.6A4.07,4.07,0,0,1,88.8,24.6ZM83.9,62.7a3.17,3.17,0,0,1-.9-2.3V31.9a3.34,3.34,0,0,1,.9-2.3,3.17,3.17,0,0,1,2.3-.9,3.34,3.34,0,0,1,2.3.9,3.17,3.17,0,0,1,.9,2.3V60.4a3.08,3.08,0,0,1-3.2,3.2A3.34,3.34,0,0,1,83.9,62.7Z" transform="translate(-4.1 -2.9)"/><path class="cls-1" d="M100.8,16.3a3.17,3.17,0,0,1,.9,2.3V49.4a7.47,7.47,0,0,0,2.3,5.5,7.64,7.64,0,0,0,5.5,2.3h0a3.34,3.34,0,0,1,2.3.9,3.26,3.26,0,0,1,1,2.3,2.9,2.9,0,0,1-1,2.3,3.17,3.17,0,0,1-2.3.9h0a13.44,13.44,0,0,1-10-4.2,13.6,13.6,0,0,1-4.2-10V18.6a3.34,3.34,0,0,1,.9-2.3,3.17,3.17,0,0,1,2.3-.9A3.34,3.34,0,0,1,100.8,16.3Z" transform="translate(-4.1 -2.9)"/><path class="cls-1" d="M140.6,15.3a3.34,3.34,0,0,1,2.3.9,3.26,3.26,0,0,1,1,2.3V60.4a2.9,2.9,0,0,1-1,2.3,3.17,3.17,0,0,1-2.3.9,2.87,2.87,0,0,1-3.1-2.4,13.87,13.87,0,0,1-7.9,2.4h-.2a13.44,13.44,0,0,1-10-4.2,13.6,13.6,0,0,1-4.2-10V42.9a13.44,13.44,0,0,1,4.2-10,13.6,13.6,0,0,1,10-4.2h.2a13.79,13.79,0,0,1,7.8,2.4V18.5a3.08,3.08,0,0,1,3.2-3.2Zm-3.2,27.6a7.47,7.47,0,0,0-2.3-5.5,7.64,7.64,0,0,0-5.5-2.3h-.2a7.47,7.47,0,0,0-5.5,2.3,7.64,7.64,0,0,0-2.3,5.5v6.5a7.47,7.47,0,0,0,2.3,5.5,7.64,7.64,0,0,0,5.5,2.3h.2a7.85,7.85,0,0,0,7.8-7.8Z" transform="translate(-4.1 -2.9)"/><path class="cls-1" d="M178,43a6,6,0,0,1-.9,3.2,6,6,0,0,1-5.5,3.2H155.7a7.47,7.47,0,0,0,2.3,5.5,7.64,7.64,0,0,0,5.5,2.3h.2A7.47,7.47,0,0,0,170,54a3.18,3.18,0,0,1,5.6,1,3.07,3.07,0,0,1-.5,2.9,13.44,13.44,0,0,1-11.5,5.8h-.2a13.9,13.9,0,0,1-10-4.1,13.23,13.23,0,0,1-4.2-9.9V43a13.44,13.44,0,0,1,4.2-10,13.6,13.6,0,0,1,10-4.2h.2A13.66,13.66,0,0,1,173.7,33a14.08,14.08,0,0,1,3,4.6,9.61,9.61,0,0,1,.8,2.9A5.34,5.34,0,0,1,178,43Zm-22.3,0h15.9a7.85,7.85,0,0,0-7.8-7.8h-.2a7.47,7.47,0,0,0-5.5,2.3,6.87,6.87,0,0,0-2.4,5.5Z" transform="translate(-4.1 -2.9)"/><path class="cls-1" d="M197.7,28.7a3,3,0,0,1,2.3,1,3.26,3.26,0,0,1,1,2.3,3,3,0,0,1-1,2.3,3.17,3.17,0,0,1-2.3.9h0a7.47,7.47,0,0,0-5.5,2.3,7.64,7.64,0,0,0-2.3,5.5V60.4a3.2,3.2,0,1,1-6.4,0V31.9a3.34,3.34,0,0,1,.9-2.3,3.26,3.26,0,0,1,2.3-1,2.88,2.88,0,0,1,2,.7,3.07,3.07,0,0,1,1.1,1.8,14.42,14.42,0,0,1,7.9-2.4Z" transform="translate(-4.1 -2.9)"/><g class="cls-2"><path class="cls-3" d="M14.3,18.5a3.34,3.34,0,0,1,.9-2.3,3.17,3.17,0,0,1,2.3-.9,3.34,3.34,0,0,1,2.3.9,3.17,3.17,0,0,1,.9,2.3V31a13.79,13.79,0,0,1,7.8-2.4h.2a13.44,13.44,0,0,1,10,4.2,13.6,13.6,0,0,1,4.2,10v6.5a13.44,13.44,0,0,1-4.2,10,13.6,13.6,0,0,1-10,4.2h-.2a13.87,13.87,0,0,1-7.9-2.4,2.87,2.87,0,0,1-3.1,2.4,3.08,3.08,0,0,1-3.2-3.2Zm6.4,30.9A7.47,7.47,0,0,0,23,54.9a7.64,7.64,0,0,0,5.5,2.3h.2a7.85,7.85,0,0,0,7.8-7.8V42.9a7.47,7.47,0,0,0-2.3-5.5,7.64,7.64,0,0,0-5.5-2.3h-.2A7.47,7.47,0,0,0,23,37.4a7.64,7.64,0,0,0-2.3,5.5Z" transform="translate(-4.1 -2.9)"/><path class="cls-3" d="M73.2,28.6a3.34,3.34,0,0,1,2.3.9,3.26,3.26,0,0,1,1,2.3V60.4a2.9,2.9,0,0,1-1,2.3,3.17,3.17,0,0,1-2.3.9,2.87,2.87,0,0,1-3.1-2.4,13.87,13.87,0,0,1-7.9,2.4H62a13.44,13.44,0,0,1-10-4.2,13.6,13.6,0,0,1-4.2-10V31.8a3.34,3.34,0,0,1,.9-2.3,3.17,3.17,0,0,1,2.3-.9,3.34,3.34,0,0,1,2.3.9,3.17,3.17,0,0,1,.9,2.3V49.4a7.47,7.47,0,0,0,2.3,5.5A7.64,7.64,0,0,0,62,57.2h.2A7.85,7.85,0,0,0,70,49.4V31.8a3.34,3.34,0,0,1,.9-2.3A3.88,3.88,0,0,1,73.2,28.6Z" transform="translate(-4.1 -2.9)"/><path class="cls-3" d="M88.8,24.6a3.41,3.41,0,0,1-2.5,1.1,3.63,3.63,0,0,1-2.6-1.1,3.41,3.41,0,0,1-1.1-2.5,3.76,3.76,0,0,1,3.7-3.7,3.41,3.41,0,0,1,2.5,1.1,3.63,3.63,0,0,1,1.1,2.6A4.07,4.07,0,0,1,88.8,24.6ZM83.9,62.7a3.17,3.17,0,0,1-.9-2.3V31.9a3.34,3.34,0,0,1,.9-2.3,3.17,3.17,0,0,1,2.3-.9,3.34,3.34,0,0,1,2.3.9,3.17,3.17,0,0,1,.9,2.3V60.4a3.08,3.08,0,0,1-3.2,3.2A3.34,3.34,0,0,1,83.9,62.7Z" transform="translate(-4.1 -2.9)"/><path class="cls-3" d="M100.8,16.3a3.17,3.17,0,0,1,.9,2.3V49.4a7.47,7.47,0,0,0,2.3,5.5,7.64,7.64,0,0,0,5.5,2.3h0a3.34,3.34,0,0,1,2.3.9,3.26,3.26,0,0,1,1,2.3,2.9,2.9,0,0,1-1,2.3,3.17,3.17,0,0,1-2.3.9h0a13.44,13.44,0,0,1-10-4.2,13.6,13.6,0,0,1-4.2-10V18.6a3.34,3.34,0,0,1,.9-2.3,3.17,3.17,0,0,1,2.3-.9A3.34,3.34,0,0,1,100.8,16.3Z" transform="translate(-4.1 -2.9)"/><path class="cls-3" d="M140.6,15.3a3.34,3.34,0,0,1,2.3.9,3.26,3.26,0,0,1,1,2.3V60.4a2.9,2.9,0,0,1-1,2.3,3.17,3.17,0,0,1-2.3.9,2.87,2.87,0,0,1-3.1-2.4,13.87,13.87,0,0,1-7.9,2.4h-.2a13.44,13.44,0,0,1-10-4.2,13.6,13.6,0,0,1-4.2-10V42.9a13.44,13.44,0,0,1,4.2-10,13.6,13.6,0,0,1,10-4.2h.2a13.79,13.79,0,0,1,7.8,2.4V18.5a3.08,3.08,0,0,1,3.2-3.2Zm-3.2,27.6a7.47,7.47,0,0,0-2.3-5.5,7.64,7.64,0,0,0-5.5-2.3h-.2a7.47,7.47,0,0,0-5.5,2.3,7.64,7.64,0,0,0-2.3,5.5v6.5a7.47,7.47,0,0,0,2.3,5.5,7.64,7.64,0,0,0,5.5,2.3h.2a7.85,7.85,0,0,0,7.8-7.8Z" transform="translate(-4.1 -2.9)"/><path class="cls-3" d="M178,43a6,6,0,0,1-.9,3.2,6,6,0,0,1-5.5,3.2H155.7a7.47,7.47,0,0,0,2.3,5.5,7.64,7.64,0,0,0,5.5,2.3h.2A7.47,7.47,0,0,0,170,54a3.18,3.18,0,0,1,5.6,1,3.07,3.07,0,0,1-.5,2.9,13.44,13.44,0,0,1-11.5,5.8h-.2a13.9,13.9,0,0,1-10-4.1,13.23,13.23,0,0,1-4.2-9.9V43a13.44,13.44,0,0,1,4.2-10,13.6,13.6,0,0,1,10-4.2h.2A13.66,13.66,0,0,1,173.7,33a14.08,14.08,0,0,1,3,4.6,9.61,9.61,0,0,1,.8,2.9A5.34,5.34,0,0,1,178,43Zm-22.3,0h15.9a7.85,7.85,0,0,0-7.8-7.8h-.2a7.47,7.47,0,0,0-5.5,2.3,6.87,6.87,0,0,0-2.4,5.5Z" transform="translate(-4.1 -2.9)"/><path class="cls-3" d="M197.7,28.7a3,3,0,0,1,2.3,1,3.26,3.26,0,0,1,1,2.3,3,3,0,0,1-1,2.3,3.17,3.17,0,0,1-2.3.9h0a7.47,7.47,0,0,0-5.5,2.3,7.64,7.64,0,0,0-2.3,5.5V60.4a3.2,3.2,0,1,1-6.4,0V31.9a3.34,3.34,0,0,1,.9-2.3,3.26,3.26,0,0,1,2.3-1,2.88,2.88,0,0,1,2,.7,3.07,3.07,0,0,1,1.1,1.8,14.42,14.42,0,0,1,7.9-2.4Z" transform="translate(-4.1 -2.9)"/></g><path class="cls-4" d="M17.5,4.5A11.37,11.37,0,0,0,6.2,15.9v3.6l22.6-.1V15.8A11.29,11.29,0,0,0,17.5,4.5Z" transform="translate(-4.1 -2.9)"/><path d="M5.7,20V15.9A11.78,11.78,0,0,1,17.5,4h0A11.74,11.74,0,0,1,29.3,15.7v4.1ZM17.5,5A10.84,10.84,0,0,0,6.7,15.9V19l21.6-.1V15.8A10.82,10.82,0,0,0,17.5,5Z" transform="translate(-4.1 -2.9)"/><path class="cls-4" d="M29.7,20.8,17.5,22.4,5.3,20.9a.68.68,0,0,1-.7-.7h0a.68.68,0,0,1,.7-.7h0l24.4-.1a.68.68,0,0,1,.7.7h0c.1.4-.3.7-.7.7Z" transform="translate(-4.1 -2.9)"/><path d="M17.5,22.9,5.3,21.4h0a1.29,1.29,0,0,1-1.2-1.2,1.3,1.3,0,0,1,1.2-1.3l24.4-.1a1.2,1.2,0,0,1,.8,2.1,2,2,0,0,1-.8.4h-.1Zm12.2-3L5.3,20a.2.2,0,1,0,0,.4l12.2,1.5,12.2-1.6c.1,0,.1,0,.2-.1A.35.35,0,0,0,30,20,1,1,0,0,0,29.7,19.9Z" transform="translate(-4.1 -2.9)"/><rect class="cls-4" x="13.4" y="3.4" width="8.2" height="16" transform="translate(-4.15 -2.83) rotate(-0.23)"/><path d="M12.9,19.9l-.1-17H22l.1,17Zm.9-16,.1,15h7.2L21,3.9Z" transform="translate(-4.1 -2.9)"/></svg>