<svg id="Capa_1" data-name="Capa 1" xmlns="http://www.w3.org/2000/svg" viewBox="0 0 205 66.48"><defs><style>.cls-1{fill:#ff8000;}.cls-2{isolation:isolate;}.cls-3{fill:#0a0909;}.cls-4{fill:none;stroke:#000;stroke-miterlimit:10;stroke-width:0.75px;}.cls-5{fill:#ffcd00;}</style></defs><title>logo1</title><rect class="cls-1" width="205" height="66.48"/><g class="cls-2"><path class="cls-3" d="M14.31,18.46a3.2,3.2,0,1,1,6.39,0V31a13.81,13.81,0,0,1,7.83-2.36h.24a13.7,13.7,0,0,1,10.05,4.17,13.7,13.7,0,0,1,4.17,10v6.52a13.7,13.7,0,0,1-4.17,10,13.7,13.7,0,0,1-10,4.17h-.24a13.89,13.89,0,0,1-7.93-2.42,2.9,2.9,0,0,1-3.08,2.42,3.16,3.16,0,0,1-2.29-.92,3.2,3.2,0,0,1-.92-2.29ZM20.7,49.39a7.82,7.82,0,0,0,7.83,7.83h.24a7.89,7.89,0,0,0,7.83-7.83V42.87A7.89,7.89,0,0,0,28.77,35h-.24a7.82,7.82,0,0,0-7.83,7.83Z"/><path class="cls-3" d="M73.24,28.65a3,3,0,0,1,2.25.92,3.09,3.09,0,0,1,1,2.26V60.4a3.12,3.12,0,0,1-1,2.29,3,3,0,0,1-2.25.92,2.87,2.87,0,0,1-3.08-2.42,13.91,13.91,0,0,1-7.93,2.42H62A14.24,14.24,0,0,1,47.77,49.39V31.83A3.14,3.14,0,0,1,51,28.65a3.14,3.14,0,0,1,3.18,3.18V49.39A7.82,7.82,0,0,0,62,57.22h.24a7.89,7.89,0,0,0,7.83-7.83V31.83A3.13,3.13,0,0,1,71,29.57,3.06,3.06,0,0,1,73.24,28.65Z"/><path class="cls-3" d="M88.75,24.58a3.43,3.43,0,0,1-2.53,1.06,3.6,3.6,0,0,1-2.56-6.15,3.48,3.48,0,0,1,2.56-1.06,3.43,3.43,0,0,1,2.53,1.06,3.59,3.59,0,0,1,0,5.09ZM83.93,62.69A3.2,3.2,0,0,1,83,60.4V31.93a3.1,3.1,0,0,1,.92-2.26,3.22,3.22,0,0,1,2.29-.92,3.17,3.17,0,0,1,2.26.92,3.06,3.06,0,0,1,.92,2.26V60.4a3.16,3.16,0,0,1-.92,2.29,3.13,3.13,0,0,1-2.26.92A3.18,3.18,0,0,1,83.93,62.69Z"/><path class="cls-3" d="M100.75,16.34a3.13,3.13,0,0,1,.92,2.26V49.39a7.82,7.82,0,0,0,7.83,7.83h0a3.19,3.19,0,0,1,2.26,5.47,3.06,3.06,0,0,1-2.26.92h0A14.24,14.24,0,0,1,95.28,49.39V18.6a3.17,3.17,0,0,1,.92-2.26,3.22,3.22,0,0,1,2.29-.92A3.17,3.17,0,0,1,100.75,16.34Z"/><path class="cls-3" d="M140.6,15.28a3.23,3.23,0,0,1,3.22,3.18V60.4a3.12,3.12,0,0,1-1,2.29,3.06,3.06,0,0,1-2.26.92,2.87,2.87,0,0,1-3.07-2.42,13.93,13.93,0,0,1-7.93,2.42h-.24a14.24,14.24,0,0,1-14.22-14.22V42.87a14.24,14.24,0,0,1,14.22-14.22h.24A13.89,13.89,0,0,1,137.42,31V18.46a3.11,3.11,0,0,1,.93-2.25A3,3,0,0,1,140.6,15.28Zm-3.18,27.59A7.87,7.87,0,0,0,129.6,35h-.24a7.82,7.82,0,0,0-7.83,7.83v6.52a7.82,7.82,0,0,0,7.83,7.83h.24a7.87,7.87,0,0,0,7.82-7.83Z"/><path class="cls-3" d="M178,43a6.45,6.45,0,0,1-6.39,6.39l-15.89,0a7.82,7.82,0,0,0,7.82,7.83h.24A7.43,7.43,0,0,0,170.07,54a2.87,2.87,0,0,1,3.59-1.09,3,3,0,0,1,2,2,3.07,3.07,0,0,1-.48,2.87,13.48,13.48,0,0,1-11.45,5.81h-.24a14.22,14.22,0,0,1-14.21-14.08V43A14.24,14.24,0,0,1,163.5,28.78h.24A13.69,13.69,0,0,1,173.86,33a14.06,14.06,0,0,1,3,4.62,12.64,12.64,0,0,1,.82,2.9A12.36,12.36,0,0,1,178,43Zm-22.28,0h15.86a7.84,7.84,0,0,0-2.29-5.53,7.58,7.58,0,0,0-5.51-2.29h-.24A7.82,7.82,0,0,0,155.68,43Z"/><path class="cls-3" d="M197.68,28.75a3,3,0,0,1,2.26,1,3,3,0,0,1,1,2.25,3,3,0,0,1-1,2.26,3.1,3.1,0,0,1-2.26.92h0A7.89,7.89,0,0,0,189.82,43V60.4a3.2,3.2,0,0,1-.92,2.29,3.13,3.13,0,0,1-2.26.92,3.16,3.16,0,0,1-2.29-.92,3.2,3.2,0,0,1-.92-2.29V31.89a3.08,3.08,0,0,1,.92-2.25,3.12,3.12,0,0,1,2.29-1,3,3,0,0,1,2,.72,3.2,3.2,0,0,1,1.12,1.78,13.7,13.7,0,0,1,7.9-2.43Z"/></g><g class="cls-2"><path class="cls-4" d="M14.31,18.46a3.2,3.2,0,1,1,6.39,0V31a13.81,13.81,0,0,1,7.83-2.36h.24a13.7,13.7,0,0,1,10.05,4.17,13.7,13.7,0,0,1,4.17,10v6.52a13.7,13.7,0,0,1-4.17,10,13.7,13.7,0,0,1-10,4.17h-.24a13.89,13.89,0,0,1-7.93-2.42,2.9,2.9,0,0,1-3.08,2.42,3.16,3.16,0,0,1-2.29-.92,3.2,3.2,0,0,1-.92-2.29ZM20.7,49.39a7.82,7.82,0,0,0,7.83,7.83h.24a7.89,7.89,0,0,0,7.83-7.83V42.87A7.89,7.89,0,0,0,28.77,35h-.24a7.82,7.82,0,0,0-7.83,7.83Z"/><path class="cls-4" d="M73.24,28.65a3,3,0,0,1,2.25.92,3.09,3.09,0,0,1,1,2.26V60.4a3.12,3.12,0,0,1-1,2.29,3,3,0,0,1-2.25.92,2.87,2.87,0,0,1-3.08-2.42,13.91,13.91,0,0,1-7.93,2.42H62A14.24,14.24,0,0,1,47.77,49.39V31.83A3.14,3.14,0,0,1,51,28.65a3.14,3.14,0,0,1,3.18,3.18V49.39A7.82,7.82,0,0,0,62,57.22h.24a7.89,7.89,0,0,0,7.83-7.83V31.83A3.13,3.13,0,0,1,71,29.57,3.06,3.06,0,0,1,73.24,28.65Z"/><path class="cls-4" d="M88.75,24.58a3.43,3.43,0,0,1-2.53,1.06,3.6,3.6,0,0,1-2.56-6.15,3.48,3.48,0,0,1,2.56-1.06,3.43,3.43,0,0,1,2.53,1.06,3.59,3.59,0,0,1,0,5.09ZM83.93,62.69A3.2,3.2,0,0,1,83,60.4V31.93a3.1,3.1,0,0,1,.92-2.26,3.22,3.22,0,0,1,2.29-.92,3.17,3.17,0,0,1,2.26.92,3.06,3.06,0,0,1,.92,2.26V60.4a3.16,3.16,0,0,1-.92,2.29,3.13,3.13,0,0,1-2.26.92A3.18,3.18,0,0,1,83.93,62.69Z"/><path class="cls-4" d="M100.75,16.34a3.13,3.13,0,0,1,.92,2.26V49.39a7.82,7.82,0,0,0,7.83,7.83h0a3.19,3.19,0,0,1,2.26,5.47,3.06,3.06,0,0,1-2.26.92h0A14.24,14.24,0,0,1,95.28,49.39V18.6a3.17,3.17,0,0,1,.92-2.26,3.22,3.22,0,0,1,2.29-.92A3.17,3.17,0,0,1,100.75,16.34Z"/><path class="cls-4" d="M140.6,15.28a3.23,3.23,0,0,1,3.22,3.18V60.4a3.12,3.12,0,0,1-1,2.29,3.06,3.06,0,0,1-2.26.92,2.87,2.87,0,0,1-3.07-2.42,13.93,13.93,0,0,1-7.93,2.42h-.24a14.24,14.24,0,0,1-14.22-14.22V42.87a14.24,14.24,0,0,1,14.22-14.22h.24A13.89,13.89,0,0,1,137.42,31V18.46a3.11,3.11,0,0,1,.93-2.25A3,3,0,0,1,140.6,15.28Zm-3.18,27.59A7.87,7.87,0,0,0,129.6,35h-.24a7.82,7.82,0,0,0-7.83,7.83v6.52a7.82,7.82,0,0,0,7.83,7.83h.24a7.87,7.87,0,0,0,7.82-7.83Z"/><path class="cls-4" d="M178,43a6.45,6.45,0,0,1-6.39,6.39l-15.89,0a7.82,7.82,0,0,0,7.82,7.83h.24A7.43,7.43,0,0,0,170.07,54a2.87,2.87,0,0,1,3.59-1.09,3,3,0,0,1,2,2,3.07,3.07,0,0,1-.48,2.87,13.48,13.48,0,0,1-11.45,5.81h-.24a14.22,14.22,0,0,1-14.21-14.08V43A14.24,14.24,0,0,1,163.5,28.78h.24A13.69,13.69,0,0,1,173.86,33a14.06,14.06,0,0,1,3,4.62,12.64,12.64,0,0,1,.82,2.9A12.36,12.36,0,0,1,178,43Zm-22.28,0h15.86a7.84,7.84,0,0,0-2.29-5.53,7.58,7.58,0,0,0-5.51-2.29h-.24A7.82,7.82,0,0,0,155.68,43Z"/><path class="cls-4" d="M197.68,28.75a3,3,0,0,1,2.26,1,3,3,0,0,1,1,2.25,3,3,0,0,1-1,2.26,3.1,3.1,0,0,1-2.26.92h0A7.89,7.89,0,0,0,189.82,43V60.4a3.2,3.2,0,0,1-.92,2.29,3.13,3.13,0,0,1-2.26.92,3.16,3.16,0,0,1-2.29-.92,3.2,3.2,0,0,1-.92-2.29V31.89a3.08,3.08,0,0,1,.92-2.25,3.12,3.12,0,0,1,2.29-1,3,3,0,0,1,2,.72,3.2,3.2,0,0,1,1.12,1.78,13.7,13.7,0,0,1,7.9-2.43Z"/></g><path class="cls-5" d="M17.46,4.47A11.33,11.33,0,0,0,6.19,15.83v3.62l22.62-.1V15.74A11.32,11.32,0,0,0,17.46,4.47Z"/><path d="M5.69,20V15.83A11.84,11.84,0,0,1,17.46,4h0A11.83,11.83,0,0,1,29.31,15.74v4.11ZM17.47,5A10.84,10.84,0,0,0,6.69,15.83V19l21.62-.09V15.74A10.83,10.83,0,0,0,17.49,5Z"/><path class="cls-5" d="M29.71,20.84,17.53,22.43,5.34,20.94a.74.74,0,0,1-.74-.74h0a.75.75,0,0,1,.73-.75h0l24.37-.1a.74.74,0,0,1,.74.74h0a.73.73,0,0,1-.73.75Z"/><path d="M17.54,22.94,5.28,21.44h0a1.25,1.25,0,0,1,0-2.49l24.38-.1A1.24,1.24,0,0,1,31,20.09a1.21,1.21,0,0,1-.35.88,1.2,1.2,0,0,1-.8.37h-.05Zm12.17-3.09L5.35,20a.25.25,0,0,0-.25.25.24.24,0,0,0,.24.24l12.19,1.49,12.19-1.59a.25.25,0,0,0,.17-.07A.23.23,0,0,0,30,20.1.24.24,0,0,0,29.71,19.85Z"/><rect class="cls-5" x="13.37" y="3.39" width="8.23" height="16.01" transform="translate(-0.05 0.07) rotate(-0.23)"/><path d="M12.91,19.92l-.07-17,9.23,0,.07,17Zm.93-16,.06,15,7.23,0-.06-15Z"/></svg>